<?xml version="1.0" encoding="UTF-8"?>
<svg viewBox="0 0 55.999447 65.645325" xmlns="http://www.w3.org/2000/svg">
 <g transform="matrix(.85924 0 0 .85924 -.16872 -178.12)">
  <path transform="matrix(1.2488 0 0 1.1435 42.71 -15.942)" d="m17.766 235.78c0 14.601-10.683 25.393-24.641 25.393s-27.035-11.975-25.286-26.451c1.6143-13.367 11.215-27.073 25.172-26.95 14.072 0.12465 24.593 13.255 24.755 28.007z" fill="#c17d11"/>
  <path d="m28.5 220.59c-1.5-2.25-9-9.75-9-9.75l13.75 1-3 3.5 2.5 1.25 9.25-3 4.25 1 6.25-2-6.75 8-4.25 2-13-2z" fill="#c17d11" fill-rule="evenodd" stroke="#000"/>
  <path d="m22.25 210.59 8.75-2.75 1.75 2.25 10.471-1.6906-2.221 2.6906 0.75 0.89645 7.5-3.1464 3.75 0.25 1 2-2 2.25-5.75 1.25-3.75-1.25-10 3.25-2.25-1.25 3.5-3.75-11.5-1z" fill="#8f5902" fill-rule="evenodd"/>
  <path d="m25.698 223.01c0.26516-0.35356 2.3208-2.1313 2.3208-2.1313l13.877 1.7236 12.993-4.0659 3.5355 0.66291-0.66291 2.0771-12.551 1.37-4.2868 1.9887-15.226-1.6252z" fill="#edd400" fill-rule="evenodd" stroke="#000" stroke-width=".6"/>
  <path d="m35.2 232.79c0.4528 1.4286 0.92582 2.837 1.7246 3.9196 3.4693-0.5036 5.1074-0.30244 8.3096 0.47035-0.03637 0.92488 1.0788 0.69816 1.2543 1.4111 0.29005 1.1786-0.62432 1.1525-0.94071 1.7246-3.4872 0.63137-4.1706-3.0487-7.996-1.4111 0.76135 1.5903 1.0599 3.6437 2.0382 5.0171 2.5081-0.31953 5.4519 0.20116 7.2121 1.2543 1.2623 0.75508 2.4813 1.5694 2.195 3.606-0.09344 0.6643-0.26732 1.8737-0.62714 2.6654-0.09517 0.20946-0.44527 0.22796-0.62714 0.47035-0.32407 0.43179-0.44574 1.1928-0.62714 1.4111-0.57415 0.69079-1.4195 0.66429-1.8814 1.7246-0.88662-0.15506-0.87 0.59327-1.4111 0.78392 0.20727 0.85025 0.39667 2.2046 1.0975 2.9789-0.33991 1.1895 0.75602 2.1685-0.62714 2.5086-1.1732-0.96956-1.0335-3.252-1.7246-4.7036-1.7536 0.20209-3.1876 0.75555-4.5468 0.94071-0.10959 1.8747 1.621 3.0858 0.78392 4.7036-2.356 0.01567-1.0677-3.6605-2.5086-4.7036-3.4098 0.22843-6.1086 0.01035-7.996-1.5678-0.53542-1.0729-0.31702-2.4145 0.78392-2.6653 1.9982-0.45515 4.7807 3.7467 6.8985 2.195-0.67872-1.7776-0.74504-4.1676-1.7246-5.6442-4.6755 0.91609-9.2915-1.8726-7.6825-7.2121 0.90559-0.58888 1.3424-1.717 2.195-2.3518 0.52037-0.38757 1.2411-0.31232 1.5678-0.94071 0.03292-2.1288-2.2659-3.2241-1.4111-5.1739 1.9258 0.37362 1.3672 3.2318 2.5086 4.39 1.6795-0.14973 2.6219-1.0364 4.0764-1.4111-0.22389-1.6229-1.9128-2.6678-1.0975-4.39h0.78392zm-2.9789 7.996c0.45813 1.6847 1.0787 3.2067 2.0382 4.39 1.4526-0.53009 2.6663-0.4357 4.0764-1.0975-0.34116-1.8016-1.5026-2.7828-1.7246-4.7036-2.0029-0.0693-3.0474 0.81983-4.39 1.4111zm-1.2543 0.62714c-1.0431 1.0997-2.8096 1.476-2.6653 3.7628 1.2819 1.0222 2.9965 0.44841 4.5468 0.31357-0.33756-1.6483-0.92832-3.0437-1.8814-4.0764zm10.348 7.8392c0.95294 1.1375 1.147 3.0339 1.8814 4.39 1.946-0.71635 4.5662-2.5664 3.1357-5.1739-1.4844-0.26402-4.6396-0.92707-5.0171 0.78393zm-5.801 1.0975c0.87941 1.4724 0.76197 3.9416 1.8814 5.1739 1.5793-0.31121 3.2102-0.39666 4.5468-1.2543-0.33097-1.4982-0.72215-2.9361-1.4111-4.0764-0.037-0.69456-0.1132-1.3501-0.78392-1.4111-1.1257 0.43116-3.6169 0.18187-4.2332 1.5678z" fill-rule="evenodd"/>
  <path d="m19.754 261.19c0.55612 0.92644-0.27751 3.1293-1.5678 2.6653-0.0704-1.4815 0.24427-2.5777 1.5678-2.6653z" fill-rule="evenodd"/>
  <path d="m34.64907,267.45736c-.07416.49231.42191.41423.47035.78393-.31232.68076-.60315,1.38268-1.72463,1.25428-.46973-1.15472.31373-1.83595 1.25428-2.03821z" fill-rule="evenodd"/>
  <path d="m24.615 267.61c0.55094 0.79631 0.11555 2.1113-0.62714 2.5086-1.2662-0.31624-0.5395-2.6936 0.62714-2.5086z" fill-rule="evenodd"/>
  <path d="m44.63209,209.13876c-.7497.83448-1.77471,1.36259-2.82213,1.72463 .49501.63259 1.29688.05011 1.88245-.11579 2.05907-.771 3.97689-2.09381 6.23649-2.18973 1.02004-.05825 2.0506-.0839 3.0677-.02508 1.47832.44096 2.30073,2.41785 1.43232,3.73295-.57887.46138-1.15123.9159-1.47316,1.57917-.55737.28639-1.04421.6605-1.24255,1.26652-.59416.24088-1.12669.52633-1.40507,1.1374-1.07359,1.36224-2.58102,2.33789-3.51382,3.81817-.02477.51929.87011.01596 1.12366-.13797 .61912-.46389 1.35622-.76147 2.1364-.70454 .66901-.17771 1.22776-.64261 1.9279-.74035 1.7663-.41439 3.59357-.6615 5.4099-.54859 .87822.10177 1.94951.22176 2.45434,1.05432 .37578.57034.10542,1.3594-.47758,1.66819-.53382.35685-1.22382.45282-1.65561.96114-.3201.34237-.75735.6359-1.24963.54437-.71702.04323-1.30457.571-2.03261.58101-2.64928.33341-5.34044-.29721-7.97385.24176-.31864.0984-1.20262-.56893-1.04911.0478 .4177.42337 1.12035.44336 1.46694.95494 .47576.47951 1.08018.66053 1.69414.81524 .67197.38592 1.25224.9091 1.89728,1.33677 2.45907,1.80219 4.84016,3.77315 6.70837,6.20183 4.77953,4.59438 6.29934,7.99713 6.57698,12.68522 .33443.50299.56334,1.0578.47238,1.65844 .16187.63097.68106,1.12197.72147,1.79608 .30295,1.74647.00674,3.52922.2567,5.28176 .20716,2.07012.27458,4.17234-.10757,6.22758-.19365.97161-.25344,1.98432-.62563,2.91014-.27216.61862-.78773,1.12906-.85105,1.83278-.13473.87227-.13944,1.79588-.60177,2.5793-.74949,1.46857-2.03914,2.62915-2.54904,4.22493-1.069.46215-1.73815,1.47623-2.67822,2.12543-4.4317,3.74277-9.4254,6.96471-15.00538,8.68077-5.54595,1.74723-11.55489,1.73566-17.18101.365-5.42547-1.30464-10.53387-3.69175-15.32398-6.51643-1.15215-.56126-1.5952-1.97556-2.80471-2.45979-1.66273-2.28583-3.84167-4.25021-4.93213-6.91084-.40044-.6245-.2383-1.56694-.94019-1.99684-1.30994-5.59561-1.82244-8.4976-1.02621-13.19899-.05832-.75852.00742-1.52893.40845-2.19095 .36695-.95579.60019-1.96295.68904-2.98295 .6882-.57665 1.03226-1.4734 1.0975-2.35177 .70033-.36698.82963-1.21373 1.09749-1.88142 .01089-.46361-.15287-1.42212.52931-1.4081 .72225.13275 1.03831-.82538 1.29696-1.34655 .33682-.48883.96756-.7299 1.10978-1.37618 .22451-.6062.79605-.89952 1.24303-1.30483 .53892-.64939.78156-1.4914 1.34208-2.1295 .67346-.82361 1.46233-1.55936 1.99299-2.49224 .2798-.46086.88733-.4742 1.17713-.934 .37836-.42033.73602-.8881 1.25853-1.13779 .53122-.41221.5724-1.20396 1.15698-1.57186 1.13457-.84639 2.23702-1.73655 3.41453-2.52499 2.2113-1.51778 4.69686-3.27325 7.39994-3.54769 2.96961-.33636 6.0157-.43697 8.9726-.18762 1.8898.19807 3.71487.7222 5.61968.61102 .67863-.14237 3.97341-1.58309 4.68075-1.53265 .85694-.07191.02604,2.42037.51056,1.61273-1.10699-.14818-3.8775.72881-4.93897.86463-.65719-.3899-1.37609.69117-2.05389.54694-4.11356.21303-8.83185-2.82988-12.38059-1.19712-.80359-.51724.08558-3.12312-.50527-3.85525-.54868-.72376-1.10543-1.45893-1.82629-2.02224-.71781-.0627-.82533-.88573-1.17335-1.36526-.95788-1.43962-2.4425-2.41522-3.46154-3.80415-.11299-.66315.07751-1.3811.51195-1.89549 .79534-.16485 1.60161-.27164 2.38572-.49044 3.17338-.7554 6.30916-1.8116 9.58995-1.98368 .69311.21156.69037,1.26234 1.45239,1.35852 .78695-.00015 1.53086-.31186 2.28925-.48359 2.22201-.6821 4.50741-1.57662 6.87464-1.25378 1.00694.15314 1.96381.76885 2.29526,1.76955zm-11.91565,1.56784c-.52035-.49003-1.16982-.80864-1.72463-1.25427-2.55706.19658-4.96443,1.24325-7.52567,1.41106-.21834.59033-1.40268.21428-1.33145.94645 3.63389.26443 7.20245-.99546 10.8357-.62517 .86023.11372 1.72774.38057 2.41141.933 .1926.89247-.00645,1.92837.61708,2.68266 .67746.15447 1.1758-.52851 1.82687-.6034 .66352-.27551 1.35249-.81924 1.34231-1.60621 .17923-1.19268 1.26554-1.92481 2.23026-2.48517 .25133-.19171 1.0417-.53101.85712-.8044-3.22408.12842-6.33366,1.12049-9.53899,1.40545zm18.34383-.78392c-1.08337.04209-2.17496.09552-3.23378.3464-.56659.58762-1.44076.53689-2.18669.55483-.68761.19156-1.22883.75321-1.95865.82161-.67964.19683-1.37272.35698-2.02798.62893-.58611-.05235-1.77813-.16177-1.60637.75741 .38618.45174 1.02586.00451 1.47666-.13153 .50873-.19035 1.08332-.45893 1.62591-.2895 .59674.38252.76146,1.29273 1.52328,1.43555 1.29316.14297 2.45881-.64467 3.74238-.59963 .58529-.00629 1.19256-.12632 1.6469-.5192 .61759-.39692 1.35347-.50524 2.05294-.66566 .59587-.20829 1.21337-.6072 1.43112-1.22141 .03477-.7384-.79161-1.1427-1.43622-1.11701-.3494-.02493-.69981-.00785-1.0495-.00079zm-23.98809,3.1357c-1.32393.09337-2.726-.53168-3.98499.1091-.45276.49333.61591.81148.80317,1.24312 .61503.63202 1.26816,1.26297 2.08432,1.62669-.10335.78075.86671.92677 1.2567,1.41879 1.18286,1.17189 2.02884,2.76235 3.59524,3.48741 .63948.27882 1.35724.36234 2.0466.2677-1.55681-1.22823-2.4872-3.0398-3.91962-4.38997-.1718-.83442-.88442-1.60423-.59021-2.49638 .23475-.70272 1.08391-.9143 1.37413-1.58003-.8982.01032-1.77028.26716-2.66534.31357zm3.1357,2.19499c1.36675.59152 2.89913.32438 4.29962.01213 .6356-.22795-.08182-.88639.07921-1.36502-.12833-.78936-1.14926-.29044-1.67736-.28806-1.06379.2286-1.95725.87126-2.70147,1.64095zm10.50459-.47036c-.12267.58465-.80555.58136-1.27763.63258-.55749.08295-.91484.58718-1.4177.80721-1.69981.91428-3.64889,1.17778-5.53652,1.42995-.30569.09068-1.19838-.03046-.60658.39342 .84855.8824 1.99949,1.57707 2.40162,2.79633-.04077.61228.35424,1.30004 1.04161,1.05714 2.90525.19879 5.91753.33805 8.70881-.64426 .57188-.36589.92503-.97347 1.43238-1.41513 1.55636-1.63093 3.13247-3.24328 4.66109-4.90045-2.41658.44813-4.95844.86362-7.36889.15678-1.20053.79101-1.30773,2.35425-2.01684,3.49328-.48147.4562-.66665,1.08171-.9252,1.63157-.53036.54268-1.30758.03292-.87476-.62689 .25776-.86526.89673-1.53749 1.33347-2.30407 .09067-.70321.54454-1.18678.9294-1.72428 .11616-.3425.42286-.99983-.2162-.78393-.08888.00928-.17934.01613-.26807.00075zm7.99603,6.2714c1.60666.52256 3.26912-.05253 4.86032-.34196 .9092-.2024 1.79058-.42153 2.69543-.63874 .31031-.0712 1.26232-.50094.77256-.7449-2.59237.01654-5.29024.1572-7.66296,1.30508-.23177.12342-.45548.26253-.66534.42052zm4.54676,9.40709c.05889-.51437-.44514-.76671-.78805-.89064-.31392-.63963-.92531-1.00784-1.57434-1.22056-.66084-.41716-.90075-1.34257-1.71758-1.5399-.63056-.2416-1.19862-.61677-1.76958-.96252-.68795-.21855-1.17551-.75551-1.59537-1.31257-.40234-.61184-1.27534-.88871-1.83267-.30353-.46451.42415-1.04072.6802-1.65979.7701-1.78515.32744-3.6091.11455-5.40412-.00352-1.53294-.14091-3.07396-.19277-4.60302-.37017-1.97437-.26411-3.92208-.80326-5.70891-1.69236-.53724.4183-1.07223.8705-1.72463,1.09749-1.02305,1.3222-2.55945,2.17004-3.44927,3.60605-.72872.05393-1.16149.83315-1.82215,1.03166-1.73058,1.70926-3.22671,3.65063-5.07639,5.23974-.15131.91707-1.13088,1.29441-1.57947,2.03389-1.03043,1.3914-1.90879,2.89016-2.98827,4.24651-.96416,1.25961-2.0415,2.44524-2.85493,3.811 .04058.49178.6646.91254.164,1.42066-.37902.79224-.94985,1.46935-1.52129,2.12823-.10134,1.37013-.84908.94697-1.08297,3.91058-.4817,4.77274-1.53511,7.528 1.13945,13.97644 .48344.48645.75134,1.12672 1.04499,1.73673 .24288.65586.84978,1.01552 1.39284,1.33919 .16704.56754.4509,1.14598 1.13245,1.07275 .68844.2814.58552,1.15598.8611,1.72894 .36063.62768 1.12486.80636 1.68132,1.20836 .94679.5412 1.80077,1.22869 2.73074,1.79266 .78533.40618 1.70243.63312 2.31056,1.31549 .83044.72362 1.99497.79039 2.91726,1.34863 .42067.63483 1.27666.31031 1.87796.56784 .7671.7789 1.88852.96885 2.89157,1.28081 1.66302.43215 3.38023.59892 5.0908.7057 .91494.78901 2.20744.6565 3.32766.60802 .65719-.20474 1.16352.35136 1.76656.34002 .94348.04214 1.88719.00166 2.81981-.15178 .91597-.13383 1.8454-.22913 2.76967-.137 1.03341-.0628 1.92591-.88851 2.99428-.66063 2.21257.00903 4.07383-1.45808 6.23371-1.72327 .62117-.74334 1.57821-1.09681 2.50856-1.25428 .74466-.81769 1.8148-1.18804 2.7706-1.68847 .37344-.6494.86085-1.23206 1.48191-1.65521 .81154-.67709 1.68751-1.32721 2.24269-2.24666 .05177-.54482.74414-.7192.77005-1.29784 .24353-.66097.53134-1.35565 1.14169-1.76068 .45845-.50127.34782-1.27198.79419-1.78497 .43755-.41092.52809-.88303.57991-1.44328 .40898-.36166.60816-.81451.69885-1.38126 .16109-.78085.46712-1.51513.7455-2.25784 .38521-1.06192.44699-2.19564.64234-3.2985 .33869-2.56238-.06372-5.13956-.29011-7.69343-.06073-1.03346-.23-2.05714-.54391-3.04529-3.64372-6.99006 2.66071-1.62043-5.80456-12.47823-.46164-.44855-.98925-.9039-1.15272-1.55454-.89835-.94526-2.0438-1.60422-2.97892-2.50856z" fill-rule="evenodd"/>
 </g>
</svg>
